<svg width="35" height="35" viewBox="0 0 35 35" fill="none" xmlns="http://www.w3.org/2000/svg">
<path d="M17.4118 34.9118C27.028 34.9118 34.8235 27.1163 34.8235 17.5C34.8235 7.88377 27.028 0.0882568 17.4118 0.0882568C7.79551 0.0882568 0 7.88377 0 17.5C0 27.1163 7.79551 34.9118 17.4118 34.9118Z" fill="#627EEA"/>
<path d="M17.9537 4.44128V14.0939L26.1122 17.7395L17.9537 4.44128Z" fill="white" fill-opacity="0.602"/>
<path d="M17.9537 4.44116L9.79413 17.7394L17.9537 14.0938V4.44116Z" fill="white"/>
<path d="M17.9537 23.9945V30.5533L26.1176 19.2585L17.9537 23.9945Z" fill="white" fill-opacity="0.602"/>
<path d="M17.9537 30.5533V23.9935L9.79407 19.2585L17.9537 30.5533Z" fill="white"/>
<path d="M17.9537 22.4767L26.1122 17.7396L17.9537 14.0962V22.4767Z" fill="white" fill-opacity="0.2"/>
<path d="M9.79407 17.7396L17.9537 22.4767V14.0962L9.79407 17.7396Z" fill="white" fill-opacity="0.602"/>
</svg>
