<svg width="44" height="41" viewBox="0 0 44 41" fill="none" xmlns="http://www.w3.org/2000/svg">
<g clip-path="url(#clip0_48_324)">
<path d="M42.9801 0L24.1001 13.8852L27.611 5.70225L42.9801 0Z" fill="#E17726"/>
<path d="M1.06399 0.0163574L16.392 5.70323L19.7257 13.9934L1.06399 0.0163574ZM35.3821 29.5299L43.7268 29.6877L40.8104 39.5349L30.628 36.7484L35.3821 29.5299ZM8.61755 29.5299L13.3539 36.7484L3.18871 39.5351L0.290039 29.6877L8.61755 29.5299Z" fill="#E27625"/>
<path d="M19.2726 11.8818L19.6136 22.8293L9.40918 22.3679L12.3118 18.0154L12.3486 17.9735L19.2726 11.8818ZM24.6218 11.7596L31.6515 17.9739L31.688 18.0156L34.5906 22.3681L24.3884 22.8293L24.6218 11.7596ZM13.6529 29.5617L19.2248 33.8768L12.7523 36.9827L13.6529 29.5617ZM30.3482 29.561L31.2301 36.9828L24.7757 33.8764L30.3482 29.561Z" fill="#E27625"/>
<path d="M24.9181 33.47L31.4678 36.6222L25.3753 39.5L25.4385 37.598L24.9181 33.47ZM19.08 33.4713L18.58 37.5669L18.6211 39.4978L12.5144 36.6222L19.08 33.4713Z" fill="#D5BFB2"/>
<path d="M17.1888 24.2582L18.9003 27.8334L13.0732 26.1367L17.1888 24.2582ZM26.8112 24.2585L30.9462 26.1367L25.1 27.8329L26.8112 24.2585Z" fill="#233447"/>
<path d="M14.0983 29.5251L13.1564 37.2194L8.10791 29.6934L14.0983 29.5251ZM29.9022 29.5253L35.8927 29.6934L30.8253 37.2198L29.9022 29.5253ZM34.7381 21.9327L30.3784 26.349L27.0171 24.8222L25.4078 28.1849L24.3528 22.4024L34.7381 21.9327ZM9.25982 21.9327L19.6471 22.4024L18.5919 28.1849L16.9823 24.8227L13.6388 26.3491L9.25982 21.9327Z" fill="#CC6228"/>
<path d="M8.96606 21.0265L13.8985 26.0013L14.0694 30.9126L8.96606 21.0265ZM35.039 21.0176L29.9264 30.9213L30.1189 26.0013L35.039 21.0176ZM19.4059 21.3295L19.6044 22.5715L20.095 25.6654L19.7796 35.168L18.2886 27.5344L18.288 27.4554L19.4059 21.3295ZM24.5916 21.3123L25.7124 27.4554L25.7118 27.5344L24.217 35.1872L24.1579 33.273L23.9247 25.6091L24.5916 21.3123Z" fill="#E27525"/>
<path d="M30.5573 25.8037L30.3904 30.0708L25.187 34.1002L24.1352 33.3615L25.3142 27.3252L30.5573 25.8037ZM13.4607 25.8037L18.6855 27.3252L19.8646 33.3615L18.8127 34.1002L13.6092 30.0704L13.4607 25.8037Z" fill="#F5841F"/>
<path d="M11.5188 35.6799L18.1759 38.8151L18.1477 37.4762L18.7047 36.9902H25.2934L25.8705 37.4745L25.8279 38.8123L32.4429 35.6878L29.224 38.3316L25.3319 40.9886H18.6513L14.7617 38.3207L11.5188 35.6799Z" fill="#C0AC9D"/>
<path d="M24.4413 33.0526L25.3825 33.7136L25.9341 38.0876L25.1359 37.4177H18.8666L18.0835 38.1011L18.617 33.7139L19.5585 33.0526H24.4413Z" fill="#161616"/>
<path d="M41.7337 0.384399L44 7.14205L42.5846 13.9749L43.5925 14.7476L42.2287 15.7818L43.2537 16.5686L41.8964 17.7971L42.7297 18.3969L40.5183 20.9638L31.4485 18.339L31.3699 18.2971L24.834 12.8171L41.7337 0.384399ZM2.26634 0.384399L19.1661 12.8171L12.6301 18.2971L12.5515 18.339L3.48167 20.9638L1.27033 18.3969L2.10289 17.7976L0.746453 16.5686L1.76945 15.7826L0.385172 14.7455L1.43103 13.9723L0 7.14239L2.26634 0.384399Z" fill="#763E1A"/>
<path d="M31.0048 17.7649L40.6149 20.5459L43.737 30.1102H35.5L29.8247 30.1813L33.9521 22.1849L31.0048 17.7649ZM12.9951 17.7649L10.0472 22.1849L14.1752 30.1813L8.50243 30.1102H0.280273L3.38485 20.5461L12.9951 17.7649ZM28.0816 5.65662L25.3936 12.8724L24.8232 22.6202L24.6049 25.6756L24.5875 33.4806H19.4122L19.3954 25.6902L19.1764 22.6176L18.6058 12.8724L15.9181 5.65662H28.0816Z" fill="#F5841F"/>
</g>
<defs>
<clipPath id="clip0_48_324">
<rect width="44" height="41" fill="white"/>
</clipPath>
</defs>
</svg>
