<svg width="35" height="35" viewBox="0 0 35 35" fill="none" xmlns="http://www.w3.org/2000/svg">
<g clip-path="url(#clip0_48_299)">
<path d="M17.4118 34.9118C27.028 34.9118 34.8235 27.1163 34.8235 17.5C34.8235 7.88377 27.028 0.0882568 17.4118 0.0882568C7.79551 0.0882568 0 7.88377 0 17.5C0 27.1163 7.79551 34.9118 17.4118 34.9118Z" fill="#3E73C4"/>
<path d="M21.7886 19.8112C21.7886 17.4998 20.3956 16.7076 17.6097 16.3768C15.6204 16.1123 15.2232 15.5845 15.2232 14.6595C15.2232 13.7345 15.8871 13.1403 17.2125 13.1403C18.4063 13.1403 19.0701 13.5365 19.401 14.5278C19.4357 14.6235 19.4988 14.7064 19.5818 14.7653C19.6648 14.8242 19.7638 14.8564 19.8656 14.8576H20.9267C20.988 14.8592 21.0489 14.8484 21.1059 14.8257C21.1629 14.8031 21.2147 14.7691 21.2581 14.7259C21.3016 14.6826 21.3358 14.631 21.3587 14.5742C21.3816 14.5173 21.3927 14.4564 21.3913 14.3951V14.3298C21.2617 13.6125 20.8988 12.9582 20.359 12.4684C19.8192 11.9786 19.1328 11.6807 18.4063 11.6212V10.0367C18.4063 9.77225 18.2072 9.57419 17.8763 9.50781H16.8806C16.6162 9.50781 16.417 9.70587 16.3506 10.0367V11.5559C14.3603 11.8192 13.1012 13.1403 13.1012 14.7923C13.1012 16.9709 14.4266 17.8295 17.2125 18.1604C19.0701 18.4901 19.6665 18.8873 19.6665 19.944C19.6665 20.9996 18.7382 21.7265 17.4781 21.7265C15.7532 21.7265 15.1568 21.0007 14.9577 20.0093C14.8924 19.7459 14.6922 19.6132 14.493 19.6132H13.3656C13.3044 19.6117 13.2436 19.6226 13.1867 19.6453C13.1299 19.668 13.0782 19.702 13.0349 19.7452C12.9916 19.7885 12.9574 19.8401 12.9346 19.8968C12.9118 19.9536 12.9007 20.0145 12.902 20.0757V20.141C13.1665 21.7929 14.2286 22.9813 16.417 23.3121V24.8976C16.417 25.161 16.6162 25.3601 16.947 25.4254H17.9427C18.2072 25.4254 18.4063 25.2274 18.4727 24.8976V23.311C20.4631 22.9813 21.7886 21.5938 21.7886 19.8101V19.8112Z" fill="white"/>
<path d="M14.0295 26.7467C8.85603 24.8967 6.20291 19.1508 8.12691 14.0655C9.12156 11.2905 11.31 9.17822 14.0295 8.18684C14.295 8.05516 14.4267 7.8571 14.4267 7.52628V6.60128C14.4267 6.33793 14.295 6.13987 14.0295 6.07349C13.9631 6.07349 13.8303 6.07349 13.764 6.13878C12.2714 6.6049 10.8857 7.36166 9.68681 8.3655C8.48789 9.36933 7.49938 10.6004 6.7782 11.9879C6.05702 13.3753 5.61741 14.8917 5.48468 16.4497C5.35196 18.0078 5.52874 19.5767 6.00485 21.0661C7.19756 24.7661 10.0498 27.6064 13.764 28.7948C14.0295 28.9264 14.295 28.7948 14.3603 28.5303C14.4267 28.465 14.4267 28.3975 14.4267 28.2659V27.3409C14.4267 27.1428 14.2286 26.8795 14.0295 26.7467ZM21.0595 6.13987C20.794 6.0071 20.5284 6.13987 20.4631 6.40322C20.3968 6.4696 20.3968 6.53599 20.3968 6.66766V7.59266C20.3968 7.8571 20.5948 8.12046 20.794 8.25322C25.9674 10.1032 28.6206 15.8491 26.6966 20.9344C25.7019 23.7094 23.5135 25.8217 20.794 26.8131C20.5284 26.9448 20.3968 27.1428 20.3968 27.4736V28.3986C20.3968 28.662 20.5284 28.86 20.794 28.9264C20.8603 28.9264 20.9931 28.9264 21.0595 28.8611C22.5521 28.395 23.9377 27.6383 25.1367 26.6344C26.3356 25.6306 27.3241 24.3995 28.0453 23.0121C28.7664 21.6246 29.2061 20.1082 29.3388 18.5502C29.4715 16.9921 29.2947 15.4232 28.8186 13.9338C27.6259 10.1685 24.7073 7.32822 21.0595 6.13987Z" fill="white"/>
</g>
<defs>
<clipPath id="clip0_48_299">
<rect width="34.8235" height="34.8235" fill="white" transform="translate(0 0.0882568)"/>
</clipPath>
</defs>
</svg>
