<svg width="35" height="35" viewBox="0 0 35 35" fill="none" xmlns="http://www.w3.org/2000/svg">
<g clip-path="url(#clip0_48_307)">
<path d="M17.4118 35C27.028 35 34.8235 27.2045 34.8235 17.5883C34.8235 7.97203 27.028 0.176514 17.4118 0.176514C7.79551 0.176514 0 7.97203 0 17.5883C0 27.2045 7.79551 35 17.4118 35Z" fill="#26A17B"/>
<path fill-rule="evenodd" clip-rule="evenodd" d="M19.5035 19.0932V19.091C19.3838 19.0997 18.7668 19.1367 17.3901 19.1367C16.291 19.1367 15.5173 19.1041 15.2452 19.091V19.0943C11.0142 18.9082 7.85611 18.1714 7.85611 17.29C7.85611 16.4085 11.0142 15.6729 15.2452 15.4835V18.3608C15.5216 18.3804 16.3139 18.4272 17.4086 18.4272C18.7221 18.4272 19.3805 18.3728 19.5035 18.3619V15.4857C23.7258 15.6739 26.8763 16.4107 26.8763 17.29C26.8763 18.1714 23.7258 18.906 19.5035 19.0932ZM19.5035 15.1864V12.6117H25.3952V8.6853H9.35352V12.6117H15.2452V15.1853C10.457 15.4052 6.85602 16.3541 6.85602 17.4902C6.85602 18.6263 10.457 19.5742 15.2452 19.7951V28.0461H19.5035V19.7929C24.2841 19.5731 27.8764 18.6252 27.8764 17.4902C27.8764 16.3552 24.2841 15.4073 19.5035 15.1864Z" fill="white"/>
</g>
<defs>
<clipPath id="clip0_48_307">
<rect width="34.8235" height="34.8235" fill="white" transform="translate(0 0.176514)"/>
</clipPath>
</defs>
</svg>
