<svg width="44" height="44" viewBox="0 0 44 44" fill="none" xmlns="http://www.w3.org/2000/svg">
<path d="M12.2558 15.9683C17.6367 10.8112 26.3633 10.8112 31.7442 15.9683L32.3913 16.5898C32.4552 16.6498 32.506 16.7223 32.5408 16.8027C32.5755 16.8831 32.5935 16.9697 32.5935 17.0573C32.5935 17.1449 32.5755 17.2316 32.5408 17.312C32.506 17.3924 32.4552 17.4648 32.3913 17.5248L30.1767 19.6478C30.1107 19.71 30.0235 19.7446 29.9328 19.7446C29.8422 19.7446 29.755 19.71 29.689 19.6478L28.798 18.7935C25.0433 15.1947 18.9567 15.1947 15.202 18.7935L14.2487 19.7065C14.1827 19.7686 14.0955 19.8032 14.0048 19.8032C13.9142 19.8032 13.827 19.7686 13.761 19.7065L11.5445 17.5853C11.4807 17.5253 11.4298 17.4529 11.3951 17.3725C11.3603 17.2921 11.3424 17.2054 11.3424 17.1178C11.3424 17.0302 11.3603 16.9436 11.3951 16.8632C11.4298 16.7828 11.4807 16.7103 11.5445 16.6503L12.2558 15.9683ZM36.3275 20.361L38.2983 22.2493C38.3622 22.3093 38.413 22.3818 38.4478 22.4622C38.4825 22.5426 38.5005 22.6292 38.5005 22.7168C38.5005 22.8044 38.4825 22.8911 38.4478 22.9715C38.413 23.0519 38.3622 23.1243 38.2983 23.1843L29.4067 31.7057C29.2744 31.8286 29.1005 31.8969 28.9199 31.8969C28.7393 31.8969 28.5654 31.8286 28.4332 31.7057L22.121 25.6575C22.0881 25.627 22.0449 25.61 22 25.61C21.9551 25.61 21.9119 25.627 21.879 25.6575L15.5687 31.7075C15.4363 31.831 15.262 31.8996 15.081 31.8996C14.9 31.8996 14.7257 31.831 14.5933 31.7075L5.70167 23.1825C5.63842 23.1226 5.58806 23.0503 5.55364 22.9703C5.51922 22.8902 5.50146 22.804 5.50146 22.7168C5.50146 22.6297 5.51922 22.5435 5.55364 22.4634C5.58806 22.3833 5.63842 22.3111 5.70167 22.2512L7.67433 20.361C7.806 20.2369 7.98012 20.1677 8.16108 20.1677C8.34205 20.1677 8.51617 20.2369 8.64783 20.361L14.9582 26.4092C14.9912 26.4402 15.0348 26.4575 15.0801 26.4575C15.1254 26.4575 15.169 26.4402 15.202 26.4092L21.5123 20.3592C21.6441 20.2345 21.8186 20.165 22 20.165C22.1814 20.165 22.3559 20.2345 22.4877 20.3592L28.798 26.4092C28.831 26.4402 28.8746 26.4575 28.9199 26.4575C28.9652 26.4575 29.0088 26.4402 29.0418 26.4092L35.3522 20.3592C35.4844 20.2362 35.6583 20.1679 35.8389 20.1679C36.0195 20.1679 36.1934 20.2362 36.3257 20.3592" fill="#3B99FC"/>
</svg>
